# xmcd CD database file
#
# Track frame offsets:
#	150
#	11910
#	24127
#	35170
#	45345
#	56870
#	66735
#	80205
#	92832
#	106252
#	117885
#	128757
#	138320
#	147240
#	157465
#	168657
#	179540
#	192672
#	205742
#	215712
#	231125
#	239447
#	251762
#	262280
#
# Disc length: 3665 seconds
#
# Revision: 3
# Processed by: cddbd v1.5.1PL0 Copyright (c) Steve Scherf et al.
# Submitted via: CDex 1.51
#
DISCID=7e0e4f18
DTITLE=Various Artist - The Winifred Atwell Collection
DYEAR=1994
DGENRE=Easy Listening
TTITLE0=Black And White Rag
TTITLE1=The Entertainer
TTITLE2=Maple Leaf Rag
TTITLE3=Down Yonder
TTITLE4=Laura
TTITLE5=Kitten On The Keys
TTITLE6=Raggin' The Scale
TTITLE7=Doll Dance
TTITLE8=Steamboat Rag
TTITLE9=Blue Tango
TTITLE10=Dizzy Fingers
TTITLE11=Let's Have A Party Medly - If You Knew Susie etc
TTITLE12=Tiger Rag
TTITLE13=Old Piano Roll Blues
TTITLE14=Slaughter On Tenth Ave
TTITLE15=Does Your Chewing Gum Lose Its Flavour
TTITLE16=Alley Cat
TTITLE17=Second Hand Rose
TTITLE18=Coronation Rag
TTITLE19=Swedish Rhapsody
TTITLE20=The Harry Lime Theme
TTITLE21=Charleston
TTITLE22=Anniversary Waltz
TTITLE23=Let's Have A Party Medley - Somebody Stole My Gal etc
EXTD=YEAR: 1994
EXTT0=
EXTT1=
EXTT2=
EXTT3=
EXTT4=
EXTT5=
EXTT6=
EXTT7=
EXTT8=
EXTT9=
EXTT10=
EXTT11=
EXTT12=
EXTT13=
EXTT14=
EXTT15=
EXTT16=
EXTT17=
EXTT18=
EXTT19=
EXTT20=
EXTT21=
EXTT22=
EXTT23=
PLAYORDER=
